<?xml version="1.0" encoding="UTF-8" standalone="no"?>
<!DOCTYPE svg PUBLIC "-//W3C//DTD SVG 1.1//EN"
 "http://www.w3.org/Graphics/SVG/1.1/DTD/svg11.dtd">
<!-- Generated by graphviz version 2.38.0 (20140413.2041)
 -->
<!-- Title: controllers_diagram Pages: 1 -->
<svg width="606pt" height="516pt"
 viewBox="0.00 0.00 606.00 516.00" xmlns="http://www.w3.org/2000/svg" xmlns:xlink="http://www.w3.org/1999/xlink">
<g id="graph0" class="graph" transform="scale(1 1) rotate(0) translate(228 256)">
<title>controllers_diagram</title>
<polygon fill="none" stroke="none" points="-228,260 -228,-256 378,-256 378,260 -228,260"/>
<!-- _diagram_info -->
<g id="node1" class="node"><title>_diagram_info</title>
<text text-anchor="start" x="168" y="-223.6" font-family="Times,serif" font-size="13.00">Controllers diagram</text>
<text text-anchor="start" x="168" y="-209.6" font-family="Times,serif" font-size="13.00">Date: Dec 14 2018 &#45; 11:23</text>
<text text-anchor="start" x="168" y="-195.6" font-family="Times,serif" font-size="13.00">Migration version: 20181214090220</text>
<text text-anchor="start" x="168" y="-181.6" font-family="Times,serif" font-size="13.00">Generated by RailRoady 1.5.3</text>
<text text-anchor="start" x="168" y="-167.6" font-family="Times,serif" font-size="13.00">http://railroady.prestonlee.com</text>
</g>
<!-- ApplicationController -->
<g id="node2" class="node"><title>ApplicationController</title>
<path fill="none" stroke="black" d="M220,207.5C220,207.5 332,207.5 332,207.5 338,207.5 344,201.5 344,195.5 344,195.5 344,110.5 344,110.5 344,104.5 338,98.5 332,98.5 332,98.5 220,98.5 220,98.5 214,98.5 208,104.5 208,110.5 208,110.5 208,195.5 208,195.5 208,201.5 214,207.5 220,207.5"/>
<text text-anchor="middle" x="276" y="113.7" font-family="Times,serif" font-size="14.00">ApplicationController</text>
<polyline fill="none" stroke="black" points="208,121.5 344,121.5 "/>
<polyline fill="none" stroke="black" points="208,145.5 344,145.5 "/>
<polyline fill="none" stroke="black" points="208,169.5 344,169.5 "/>
<text text-anchor="start" x="216" y="184.7" font-family="Times,serif" font-size="14.00">_layout</text>
<text text-anchor="start" x="216" y="199.7" font-family="Times,serif" font-size="14.00">check_character</text>
</g>
<!-- LocationsController -->
<g id="node3" class="node"><title>LocationsController</title>
<path fill="none" stroke="black" d="M219.5,63.5C219.5,63.5 320.5,63.5 320.5,63.5 326.5,63.5 332.5,57.5 332.5,51.5 332.5,51.5 332.5,-47.5 332.5,-47.5 332.5,-53.5 326.5,-59.5 320.5,-59.5 320.5,-59.5 219.5,-59.5 219.5,-59.5 213.5,-59.5 207.5,-53.5 207.5,-47.5 207.5,-47.5 207.5,51.5 207.5,51.5 207.5,57.5 213.5,63.5 219.5,63.5"/>
<text text-anchor="middle" x="270" y="-44.3" font-family="Times,serif" font-size="14.00">LocationsController</text>
<polyline fill="none" stroke="black" points="207.5,-36.5 332.5,-36.5 "/>
<text text-anchor="start" x="215.5" y="-21.3" font-family="Times,serif" font-size="14.00">index</text>
<text text-anchor="start" x="215.5" y="-6.3" font-family="Times,serif" font-size="14.00">new</text>
<text text-anchor="start" x="215.5" y="8.7" font-family="Times,serif" font-size="14.00">show</text>
<polyline fill="none" stroke="black" points="207.5,16.5 332.5,16.5 "/>
<polyline fill="none" stroke="black" points="207.5,40.5 332.5,40.5 "/>
<text text-anchor="start" x="215.5" y="55.7" font-family="Times,serif" font-size="14.00">_layout</text>
</g>
<!-- BossesController -->
<g id="node4" class="node"><title>BossesController</title>
<path fill="none" stroke="black" d="M-212,191.5C-212,191.5 -126,191.5 -126,191.5 -120,191.5 -114,185.5 -114,179.5 -114,179.5 -114,80.5 -114,80.5 -114,74.5 -120,68.5 -126,68.5 -126,68.5 -212,68.5 -212,68.5 -218,68.5 -224,74.5 -224,80.5 -224,80.5 -224,179.5 -224,179.5 -224,185.5 -218,191.5 -212,191.5"/>
<text text-anchor="middle" x="-169" y="83.7" font-family="Times,serif" font-size="14.00">BossesController</text>
<polyline fill="none" stroke="black" points="-224,91.5 -114,91.5 "/>
<text text-anchor="start" x="-216" y="106.7" font-family="Times,serif" font-size="14.00">edit</text>
<text text-anchor="start" x="-216" y="121.7" font-family="Times,serif" font-size="14.00">index</text>
<text text-anchor="start" x="-216" y="136.7" font-family="Times,serif" font-size="14.00">new</text>
<polyline fill="none" stroke="black" points="-224,144.5 -114,144.5 "/>
<polyline fill="none" stroke="black" points="-224,168.5 -114,168.5 "/>
<text text-anchor="start" x="-216" y="183.7" font-family="Times,serif" font-size="14.00">_layout</text>
</g>
<!-- EnemysController -->
<g id="node5" class="node"><title>EnemysController</title>
<path fill="none" stroke="black" d="M-212,31.5C-212,31.5 -120,31.5 -120,31.5 -114,31.5 -108,25.5 -108,19.5 -108,19.5 -108,-79.5 -108,-79.5 -108,-85.5 -114,-91.5 -120,-91.5 -120,-91.5 -212,-91.5 -212,-91.5 -218,-91.5 -224,-85.5 -224,-79.5 -224,-79.5 -224,19.5 -224,19.5 -224,25.5 -218,31.5 -212,31.5"/>
<text text-anchor="middle" x="-166" y="-76.3" font-family="Times,serif" font-size="14.00">EnemysController</text>
<polyline fill="none" stroke="black" points="-224,-68.5 -108,-68.5 "/>
<text text-anchor="start" x="-216" y="-53.3" font-family="Times,serif" font-size="14.00">edit</text>
<text text-anchor="start" x="-216" y="-38.3" font-family="Times,serif" font-size="14.00">index</text>
<text text-anchor="start" x="-216" y="-23.3" font-family="Times,serif" font-size="14.00">new</text>
<polyline fill="none" stroke="black" points="-224,-15.5 -108,-15.5 "/>
<polyline fill="none" stroke="black" points="-224,8.5 -108,8.5 "/>
<text text-anchor="start" x="-216" y="23.7" font-family="Times,serif" font-size="14.00">_layout</text>
</g>
<!-- CharactersController -->
<g id="node6" class="node"><title>CharactersController</title>
<path fill="none" stroke="black" d="M-68,127C-68,127 38,127 38,127 44,127 50,121 50,115 50,115 50,-89 50,-89 50,-95 44,-101 38,-101 38,-101 -68,-101 -68,-101 -74,-101 -80,-95 -80,-89 -80,-89 -80,115 -80,115 -80,121 -74,127 -68,127"/>
<text text-anchor="middle" x="-15" y="-85.8" font-family="Times,serif" font-size="14.00">CharactersController</text>
<polyline fill="none" stroke="black" points="-80,-78 50,-78 "/>
<text text-anchor="start" x="-72" y="-62.8" font-family="Times,serif" font-size="14.00">check_character</text>
<text text-anchor="start" x="-72" y="-47.8" font-family="Times,serif" font-size="14.00">create</text>
<text text-anchor="start" x="-72" y="-32.8" font-family="Times,serif" font-size="14.00">destroy</text>
<text text-anchor="start" x="-72" y="-17.8" font-family="Times,serif" font-size="14.00">edit</text>
<text text-anchor="start" x="-72" y="-2.8" font-family="Times,serif" font-size="14.00">index</text>
<text text-anchor="start" x="-72" y="12.2" font-family="Times,serif" font-size="14.00">new</text>
<text text-anchor="start" x="-72" y="27.2" font-family="Times,serif" font-size="14.00">show</text>
<text text-anchor="start" x="-72" y="42.2" font-family="Times,serif" font-size="14.00">update</text>
<polyline fill="none" stroke="black" points="-80,50 50,50 "/>
<polyline fill="none" stroke="black" points="-80,74 50,74 "/>
<text text-anchor="start" x="-72" y="89.2" font-family="Times,serif" font-size="14.00">_layout</text>
<text text-anchor="start" x="-72" y="104.2" font-family="Times,serif" font-size="14.00">character_params</text>
<text text-anchor="start" x="-72" y="119.2" font-family="Times,serif" font-size="14.00">find_character</text>
</g>
<!-- PagesController -->
<g id="node7" class="node"><title>PagesController</title>
<path fill="none" stroke="black" d="M12,255.5C12,255.5 92,255.5 92,255.5 98,255.5 104,249.5 104,243.5 104,243.5 104,174.5 104,174.5 104,168.5 98,162.5 92,162.5 92,162.5 12,162.5 12,162.5 6,162.5 0,168.5 0,174.5 0,174.5 0,243.5 0,243.5 0,249.5 6,255.5 12,255.5"/>
<text text-anchor="middle" x="52" y="177.7" font-family="Times,serif" font-size="14.00">PagesController</text>
<polyline fill="none" stroke="black" points="0,185.5 104,185.5 "/>
<text text-anchor="start" x="8" y="200.7" font-family="Times,serif" font-size="14.00">index</text>
<polyline fill="none" stroke="black" points="0,208.5 104,208.5 "/>
<polyline fill="none" stroke="black" points="0,232.5 104,232.5 "/>
<text text-anchor="start" x="8" y="247.7" font-family="Times,serif" font-size="14.00">_layout</text>
</g>
<!-- ItemsController -->
<g id="node8" class="node"><title>ItemsController</title>
<path fill="none" stroke="black" d="M92.5,79.5C92.5,79.5 171.5,79.5 171.5,79.5 177.5,79.5 183.5,73.5 183.5,67.5 183.5,67.5 183.5,-121.5 183.5,-121.5 183.5,-127.5 177.5,-133.5 171.5,-133.5 171.5,-133.5 92.5,-133.5 92.5,-133.5 86.5,-133.5 80.5,-127.5 80.5,-121.5 80.5,-121.5 80.5,67.5 80.5,67.5 80.5,73.5 86.5,79.5 92.5,79.5"/>
<text text-anchor="middle" x="132" y="-118.3" font-family="Times,serif" font-size="14.00">ItemsController</text>
<polyline fill="none" stroke="black" points="80.5,-110.5 183.5,-110.5 "/>
<text text-anchor="start" x="88.5" y="-95.3" font-family="Times,serif" font-size="14.00">create</text>
<text text-anchor="start" x="88.5" y="-80.3" font-family="Times,serif" font-size="14.00">destroy</text>
<text text-anchor="start" x="88.5" y="-65.3" font-family="Times,serif" font-size="14.00">edit</text>
<text text-anchor="start" x="88.5" y="-50.3" font-family="Times,serif" font-size="14.00">index</text>
<text text-anchor="start" x="88.5" y="-35.3" font-family="Times,serif" font-size="14.00">new</text>
<text text-anchor="start" x="88.5" y="-20.3" font-family="Times,serif" font-size="14.00">show</text>
<text text-anchor="start" x="88.5" y="-5.3" font-family="Times,serif" font-size="14.00">update</text>
<polyline fill="none" stroke="black" points="80.5,2.5 183.5,2.5 "/>
<polyline fill="none" stroke="black" points="80.5,26.5 183.5,26.5 "/>
<text text-anchor="start" x="88.5" y="41.7" font-family="Times,serif" font-size="14.00">_layout</text>
<text text-anchor="start" x="88.5" y="56.7" font-family="Times,serif" font-size="14.00">find_item</text>
<text text-anchor="start" x="88.5" y="71.7" font-family="Times,serif" font-size="14.00">item_params</text>
</g>
<!-- GameSessionsController -->
<g id="node9" class="node"><title>GameSessionsController</title>
<path fill="none" stroke="black" d="M-100,-128.5C-100,-128.5 28,-128.5 28,-128.5 34,-128.5 40,-134.5 40,-140.5 40,-140.5 40,-239.5 40,-239.5 40,-245.5 34,-251.5 28,-251.5 28,-251.5 -100,-251.5 -100,-251.5 -106,-251.5 -112,-245.5 -112,-239.5 -112,-239.5 -112,-140.5 -112,-140.5 -112,-134.5 -106,-128.5 -100,-128.5"/>
<text text-anchor="middle" x="-36" y="-236.3" font-family="Times,serif" font-size="14.00">GameSessionsController</text>
<polyline fill="none" stroke="black" points="-112,-228.5 40,-228.5 "/>
<text text-anchor="start" x="-104" y="-213.3" font-family="Times,serif" font-size="14.00">edit</text>
<text text-anchor="start" x="-104" y="-198.3" font-family="Times,serif" font-size="14.00">index</text>
<text text-anchor="start" x="-104" y="-183.3" font-family="Times,serif" font-size="14.00">new</text>
<polyline fill="none" stroke="black" points="-112,-175.5 40,-175.5 "/>
<polyline fill="none" stroke="black" points="-112,-151.5 40,-151.5 "/>
<text text-anchor="start" x="-104" y="-136.3" font-family="Times,serif" font-size="14.00">_layout</text>
</g>
</g>
</svg>
