<?xml version="1.0" encoding="UTF-8" standalone="no"?>
<!DOCTYPE svg PUBLIC "-//W3C//DTD SVG 1.1//EN"
 "http://www.w3.org/Graphics/SVG/1.1/DTD/svg11.dtd">
<!-- Generated by graphviz version 2.38.0 (20140413.2041)
 -->
<!-- Title: controllers_diagram Pages: 1 -->
<svg width="528pt" height="579pt"
 viewBox="0.00 0.00 528.00 579.00" xmlns="http://www.w3.org/2000/svg" xmlns:xlink="http://www.w3.org/1999/xlink">
<g id="graph0" class="graph" transform="scale(1 1) rotate(0) translate(208 354)">
<title>controllers_diagram</title>
<polygon fill="none" stroke="none" points="-208,225 -208,-354 320,-354 320,225 -208,225"/>
<!-- _diagram_info -->
<g id="node1" class="node"><title>_diagram_info</title>
<text text-anchor="start" x="110" y="157.4" font-family="Times,serif" font-size="13.00">Controllers diagram</text>
<text text-anchor="start" x="110" y="171.4" font-family="Times,serif" font-size="13.00">Date: Dec 20 2018 &#45; 21:19</text>
<text text-anchor="start" x="110" y="185.4" font-family="Times,serif" font-size="13.00">Migration version: 20181216114504</text>
<text text-anchor="start" x="110" y="199.4" font-family="Times,serif" font-size="13.00">Generated by RailRoady 1.5.3</text>
<text text-anchor="start" x="110" y="213.4" font-family="Times,serif" font-size="13.00">http://railroady.prestonlee.com</text>
</g>
<!-- ApplicationController -->
<g id="node2" class="node"><title>ApplicationController</title>
<path fill="none" stroke="black" d="M-175,-187.5C-175,-187.5 -63,-187.5 -63,-187.5 -57,-187.5 -51,-193.5 -51,-199.5 -51,-199.5 -51,-284.5 -51,-284.5 -51,-290.5 -57,-296.5 -63,-296.5 -63,-296.5 -175,-296.5 -175,-296.5 -181,-296.5 -187,-290.5 -187,-284.5 -187,-284.5 -187,-199.5 -187,-199.5 -187,-193.5 -181,-187.5 -175,-187.5"/>
<text text-anchor="middle" x="-119" y="-281.3" font-family="Times,serif" font-size="14.00">ApplicationController</text>
<polyline fill="none" stroke="black" points="-187,-273.5 -51,-273.5 "/>
<polyline fill="none" stroke="black" points="-187,-249.5 -51,-249.5 "/>
<polyline fill="none" stroke="black" points="-187,-225.5 -51,-225.5 "/>
<text text-anchor="start" x="-179" y="-210.3" font-family="Times,serif" font-size="14.00">_layout</text>
<text text-anchor="start" x="-179" y="-195.3" font-family="Times,serif" font-size="14.00">check_character</text>
</g>
<!-- LocationsController -->
<g id="node3" class="node"><title>LocationsController</title>
<path fill="none" stroke="black" d="M113.5,101.5C113.5,101.5 214.5,101.5 214.5,101.5 220.5,101.5 226.5,95.5 226.5,89.5 226.5,89.5 226.5,-69.5 226.5,-69.5 226.5,-75.5 220.5,-81.5 214.5,-81.5 214.5,-81.5 113.5,-81.5 113.5,-81.5 107.5,-81.5 101.5,-75.5 101.5,-69.5 101.5,-69.5 101.5,89.5 101.5,89.5 101.5,95.5 107.5,101.5 113.5,101.5"/>
<text text-anchor="middle" x="164" y="-66.3" font-family="Times,serif" font-size="14.00">LocationsController</text>
<polyline fill="none" stroke="black" points="101.5,-58.5 226.5,-58.5 "/>
<text text-anchor="start" x="109.5" y="-43.3" font-family="Times,serif" font-size="14.00">create</text>
<text text-anchor="start" x="109.5" y="-28.3" font-family="Times,serif" font-size="14.00">index</text>
<text text-anchor="start" x="109.5" y="-13.3" font-family="Times,serif" font-size="14.00">new</text>
<text text-anchor="start" x="109.5" y="1.7" font-family="Times,serif" font-size="14.00">show</text>
<polyline fill="none" stroke="black" points="101.5,9.5 226.5,9.5 "/>
<polyline fill="none" stroke="black" points="101.5,33.5 226.5,33.5 "/>
<text text-anchor="start" x="109.5" y="48.7" font-family="Times,serif" font-size="14.00">_layout</text>
<text text-anchor="start" x="109.5" y="63.7" font-family="Times,serif" font-size="14.00">find_character</text>
<text text-anchor="start" x="109.5" y="78.7" font-family="Times,serif" font-size="14.00">find_location</text>
<text text-anchor="start" x="109.5" y="93.7" font-family="Times,serif" font-size="14.00">location_params</text>
</g>
<!-- EnemysController -->
<g id="node4" class="node"><title>EnemysController</title>
<path fill="none" stroke="black" d="M131,-120C131,-120 223,-120 223,-120 229,-120 235,-126 235,-132 235,-132 235,-306 235,-306 235,-312 229,-318 223,-318 223,-318 131,-318 131,-318 125,-318 119,-312 119,-306 119,-306 119,-132 119,-132 119,-126 125,-120 131,-120"/>
<text text-anchor="middle" x="177" y="-302.8" font-family="Times,serif" font-size="14.00">EnemysController</text>
<polyline fill="none" stroke="black" points="119,-295 235,-295 "/>
<text text-anchor="start" x="127" y="-279.8" font-family="Times,serif" font-size="14.00">create</text>
<text text-anchor="start" x="127" y="-264.8" font-family="Times,serif" font-size="14.00">destroy</text>
<text text-anchor="start" x="127" y="-249.8" font-family="Times,serif" font-size="14.00">edit</text>
<text text-anchor="start" x="127" y="-234.8" font-family="Times,serif" font-size="14.00">index</text>
<text text-anchor="start" x="127" y="-219.8" font-family="Times,serif" font-size="14.00">new</text>
<text text-anchor="start" x="127" y="-204.8" font-family="Times,serif" font-size="14.00">update</text>
<polyline fill="none" stroke="black" points="119,-197 235,-197 "/>
<polyline fill="none" stroke="black" points="119,-173 235,-173 "/>
<text text-anchor="start" x="127" y="-157.8" font-family="Times,serif" font-size="14.00">_layout</text>
<text text-anchor="start" x="127" y="-142.8" font-family="Times,serif" font-size="14.00">find_enemy</text>
<text text-anchor="start" x="127" y="-127.8" font-family="Times,serif" font-size="14.00">params_enemy</text>
</g>
<!-- CharactersController -->
<g id="node5" class="node"><title>CharactersController</title>
<path fill="none" stroke="black" d="M-56,118C-56,118 50,118 50,118 56,118 62,112 62,106 62,106 62,-98 62,-98 62,-104 56,-110 50,-110 50,-110 -56,-110 -56,-110 -62,-110 -68,-104 -68,-98 -68,-98 -68,106 -68,106 -68,112 -62,118 -56,118"/>
<text text-anchor="middle" x="-3" y="-94.8" font-family="Times,serif" font-size="14.00">CharactersController</text>
<polyline fill="none" stroke="black" points="-68,-87 62,-87 "/>
<text text-anchor="start" x="-60" y="-71.8" font-family="Times,serif" font-size="14.00">check_character</text>
<text text-anchor="start" x="-60" y="-56.8" font-family="Times,serif" font-size="14.00">create</text>
<text text-anchor="start" x="-60" y="-41.8" font-family="Times,serif" font-size="14.00">destroy</text>
<text text-anchor="start" x="-60" y="-26.8" font-family="Times,serif" font-size="14.00">edit</text>
<text text-anchor="start" x="-60" y="-11.8" font-family="Times,serif" font-size="14.00">index</text>
<text text-anchor="start" x="-60" y="3.2" font-family="Times,serif" font-size="14.00">new</text>
<text text-anchor="start" x="-60" y="18.2" font-family="Times,serif" font-size="14.00">show</text>
<text text-anchor="start" x="-60" y="33.2" font-family="Times,serif" font-size="14.00">update</text>
<polyline fill="none" stroke="black" points="-68,41 62,41 "/>
<polyline fill="none" stroke="black" points="-68,65 62,65 "/>
<text text-anchor="start" x="-60" y="80.2" font-family="Times,serif" font-size="14.00">_layout</text>
<text text-anchor="start" x="-60" y="95.2" font-family="Times,serif" font-size="14.00">character_params</text>
<text text-anchor="start" x="-60" y="110.2" font-family="Times,serif" font-size="14.00">find_character</text>
</g>
<!-- PagesController -->
<g id="node6" class="node"><title>PagesController</title>
<path fill="none" stroke="black" d="M-192,-68.5C-192,-68.5 -112,-68.5 -112,-68.5 -106,-68.5 -100,-74.5 -100,-80.5 -100,-80.5 -100,-149.5 -100,-149.5 -100,-155.5 -106,-161.5 -112,-161.5 -112,-161.5 -192,-161.5 -192,-161.5 -198,-161.5 -204,-155.5 -204,-149.5 -204,-149.5 -204,-80.5 -204,-80.5 -204,-74.5 -198,-68.5 -192,-68.5"/>
<text text-anchor="middle" x="-152" y="-146.3" font-family="Times,serif" font-size="14.00">PagesController</text>
<polyline fill="none" stroke="black" points="-204,-138.5 -100,-138.5 "/>
<text text-anchor="start" x="-196" y="-123.3" font-family="Times,serif" font-size="14.00">index</text>
<polyline fill="none" stroke="black" points="-204,-115.5 -100,-115.5 "/>
<polyline fill="none" stroke="black" points="-204,-91.5 -100,-91.5 "/>
<text text-anchor="start" x="-196" y="-76.3" font-family="Times,serif" font-size="14.00">_layout</text>
</g>
<!-- ItemsController -->
<g id="node7" class="node"><title>ItemsController</title>
<path fill="none" stroke="black" d="M-4.5,-136.5C-4.5,-136.5 74.5,-136.5 74.5,-136.5 80.5,-136.5 86.5,-142.5 86.5,-148.5 86.5,-148.5 86.5,-337.5 86.5,-337.5 86.5,-343.5 80.5,-349.5 74.5,-349.5 74.5,-349.5 -4.5,-349.5 -4.5,-349.5 -10.5,-349.5 -16.5,-343.5 -16.5,-337.5 -16.5,-337.5 -16.5,-148.5 -16.5,-148.5 -16.5,-142.5 -10.5,-136.5 -4.5,-136.5"/>
<text text-anchor="middle" x="35" y="-334.3" font-family="Times,serif" font-size="14.00">ItemsController</text>
<polyline fill="none" stroke="black" points="-16.5,-326.5 86.5,-326.5 "/>
<text text-anchor="start" x="-8.5" y="-311.3" font-family="Times,serif" font-size="14.00">create</text>
<text text-anchor="start" x="-8.5" y="-296.3" font-family="Times,serif" font-size="14.00">destroy</text>
<text text-anchor="start" x="-8.5" y="-281.3" font-family="Times,serif" font-size="14.00">edit</text>
<text text-anchor="start" x="-8.5" y="-266.3" font-family="Times,serif" font-size="14.00">index</text>
<text text-anchor="start" x="-8.5" y="-251.3" font-family="Times,serif" font-size="14.00">new</text>
<text text-anchor="start" x="-8.5" y="-236.3" font-family="Times,serif" font-size="14.00">show</text>
<text text-anchor="start" x="-8.5" y="-221.3" font-family="Times,serif" font-size="14.00">update</text>
<polyline fill="none" stroke="black" points="-16.5,-213.5 86.5,-213.5 "/>
<polyline fill="none" stroke="black" points="-16.5,-189.5 86.5,-189.5 "/>
<text text-anchor="start" x="-8.5" y="-174.3" font-family="Times,serif" font-size="14.00">_layout</text>
<text text-anchor="start" x="-8.5" y="-159.3" font-family="Times,serif" font-size="14.00">find_item</text>
<text text-anchor="start" x="-8.5" y="-144.3" font-family="Times,serif" font-size="14.00">item_params</text>
</g>
</g>
</svg>
