<?xml version="1.0" encoding="UTF-8" standalone="no"?>
<!DOCTYPE svg PUBLIC "-//W3C//DTD SVG 1.1//EN"
 "http://www.w3.org/Graphics/SVG/1.1/DTD/svg11.dtd">
<!-- Generated by graphviz version 2.38.0 (20140413.2041)
 -->
<!-- Title: models_diagram Pages: 1 -->
<svg width="830pt" height="964pt"
 viewBox="0.00 0.00 830.34 964.00" xmlns="http://www.w3.org/2000/svg" xmlns:xlink="http://www.w3.org/1999/xlink">
<g id="graph0" class="graph" transform="scale(1 1) rotate(0) translate(4 960)">
<title>models_diagram</title>
<polygon fill="none" stroke="none" points="-4,4 -4,-960 826.343,-960 826.343,4 -4,4"/>
<!-- _diagram_info -->
<g id="node1" class="node"><title>_diagram_info</title>
<text text-anchor="start" x="8" y="-904.6" font-family="Times,serif" font-size="13.00">Models diagram</text>
<text text-anchor="start" x="8" y="-890.6" font-family="Times,serif" font-size="13.00">Date: Dec 20 2018 &#45; 21:19</text>
<text text-anchor="start" x="8" y="-876.6" font-family="Times,serif" font-size="13.00">Migration version: 20181216114504</text>
<text text-anchor="start" x="8" y="-862.6" font-family="Times,serif" font-size="13.00">Generated by RailRoady 1.5.3</text>
<text text-anchor="start" x="8" y="-848.6" font-family="Times,serif" font-size="13.00">http://railroady.prestonlee.com</text>
</g>
<!-- User -->
<g id="node2" class="node"><title>User</title>
<path fill="none" stroke="black" d="M244,-804.5C244,-804.5 420,-804.5 420,-804.5 426,-804.5 432,-810.5 432,-816.5 432,-816.5 432,-943.5 432,-943.5 432,-949.5 426,-955.5 420,-955.5 420,-955.5 244,-955.5 244,-955.5 238,-955.5 232,-949.5 232,-943.5 232,-943.5 232,-816.5 232,-816.5 232,-810.5 238,-804.5 244,-804.5"/>
<text text-anchor="middle" x="332" y="-940.3" font-family="Times,serif" font-size="14.00">User</text>
<polyline fill="none" stroke="black" points="232,-932.5 432,-932.5 "/>
<text text-anchor="start" x="240" y="-917.3" font-family="Times,serif" font-size="14.00">id :INTEGER</text>
<text text-anchor="start" x="240" y="-902.3" font-family="Times,serif" font-size="14.00">email :varchar</text>
<text text-anchor="start" x="240" y="-887.3" font-family="Times,serif" font-size="14.00">encrypted_password :varchar</text>
<text text-anchor="start" x="240" y="-872.3" font-family="Times,serif" font-size="14.00">reset_password_token :varchar</text>
<text text-anchor="start" x="240" y="-857.3" font-family="Times,serif" font-size="14.00">reset_password_sent_at :datetime</text>
<text text-anchor="start" x="240" y="-842.3" font-family="Times,serif" font-size="14.00">remember_created_at :datetime</text>
<text text-anchor="start" x="240" y="-827.3" font-family="Times,serif" font-size="14.00">created_at :datetime</text>
<text text-anchor="start" x="240" y="-812.3" font-family="Times,serif" font-size="14.00">updated_at :datetime</text>
</g>
<!-- Character -->
<g id="node5" class="node"><title>Character</title>
<path fill="none" stroke="black" d="M257,-481.5C257,-481.5 407,-481.5 407,-481.5 413,-481.5 419,-487.5 419,-493.5 419,-493.5 419,-755.5 419,-755.5 419,-761.5 413,-767.5 407,-767.5 407,-767.5 257,-767.5 257,-767.5 251,-767.5 245,-761.5 245,-755.5 245,-755.5 245,-493.5 245,-493.5 245,-487.5 251,-481.5 257,-481.5"/>
<text text-anchor="middle" x="332" y="-752.3" font-family="Times,serif" font-size="14.00">Character</text>
<polyline fill="none" stroke="black" points="245,-744.5 419,-744.5 "/>
<text text-anchor="start" x="253" y="-729.3" font-family="Times,serif" font-size="14.00">id :INTEGER</text>
<text text-anchor="start" x="253" y="-714.3" font-family="Times,serif" font-size="14.00">user_id :integer</text>
<text text-anchor="start" x="253" y="-699.3" font-family="Times,serif" font-size="14.00">nickname :varchar</text>
<text text-anchor="start" x="253" y="-684.3" font-family="Times,serif" font-size="14.00">character_class :varchar</text>
<text text-anchor="start" x="253" y="-669.3" font-family="Times,serif" font-size="14.00">lvl :integer</text>
<text text-anchor="start" x="253" y="-654.3" font-family="Times,serif" font-size="14.00">damage :integer</text>
<text text-anchor="start" x="253" y="-639.3" font-family="Times,serif" font-size="14.00">hp :integer</text>
<text text-anchor="start" x="253" y="-624.3" font-family="Times,serif" font-size="14.00">created_at :datetime</text>
<text text-anchor="start" x="253" y="-609.3" font-family="Times,serif" font-size="14.00">updated_at :datetime</text>
<text text-anchor="start" x="253" y="-594.3" font-family="Times,serif" font-size="14.00">exp :integer</text>
<text text-anchor="start" x="253" y="-579.3" font-family="Times,serif" font-size="14.00">avatar_file_name :varchar</text>
<text text-anchor="start" x="253" y="-564.3" font-family="Times,serif" font-size="14.00">avatar_content_type :varchar</text>
<text text-anchor="start" x="253" y="-549.3" font-family="Times,serif" font-size="14.00">avatar_file_size :integer</text>
<text text-anchor="start" x="253" y="-534.3" font-family="Times,serif" font-size="14.00">avatar_updated_at :datetime</text>
<text text-anchor="start" x="253" y="-519.3" font-family="Times,serif" font-size="14.00">location_id :integer</text>
<text text-anchor="start" x="253" y="-504.3" font-family="Times,serif" font-size="14.00">num :integer</text>
<text text-anchor="start" x="253" y="-489.3" font-family="Times,serif" font-size="14.00">fight_enemy_id :integer</text>
</g>
<!-- User&#45;&gt;Character -->
<g id="edge1" class="edge"><title>User&#45;&gt;Character</title>
<path fill="none" stroke="#425add" d="M332,-796.267C332,-789.607 332,-782.761 332,-775.818"/>
<ellipse fill="none" stroke="#425add" cx="332" cy="-800.313" rx="4" ry="4"/>
<ellipse fill="#425add" stroke="#425add" cx="332" cy="-771.627" rx="4" ry="4"/>
</g>
<!-- FightEnemy -->
<g id="node3" class="node"><title>FightEnemy</title>
<path fill="none" stroke="black" d="M121.5,-271C121.5,-271 228.5,-271 228.5,-271 234.5,-271 240.5,-277 240.5,-283 240.5,-283 240.5,-380 240.5,-380 240.5,-386 234.5,-392 228.5,-392 228.5,-392 121.5,-392 121.5,-392 115.5,-392 109.5,-386 109.5,-380 109.5,-380 109.5,-283 109.5,-283 109.5,-277 115.5,-271 121.5,-271"/>
<text text-anchor="middle" x="175" y="-376.8" font-family="Times,serif" font-size="14.00">FightEnemy</text>
<polyline fill="none" stroke="black" points="109.5,-369 240.5,-369 "/>
<text text-anchor="start" x="117.5" y="-353.8" font-family="Times,serif" font-size="14.00">id :INTEGER</text>
<text text-anchor="start" x="117.5" y="-338.8" font-family="Times,serif" font-size="14.00">enemy_id :integer</text>
<text text-anchor="start" x="117.5" y="-323.8" font-family="Times,serif" font-size="14.00">character_id :integer</text>
<text text-anchor="start" x="117.5" y="-308.8" font-family="Times,serif" font-size="14.00">hp :integer</text>
<text text-anchor="start" x="117.5" y="-293.8" font-family="Times,serif" font-size="14.00">created_at :datetime</text>
<text text-anchor="start" x="117.5" y="-278.8" font-family="Times,serif" font-size="14.00">updated_at :datetime</text>
</g>
<!-- AdminUser -->
<g id="node4" class="node"><title>AdminUser</title>
<path fill="none" stroke="black" d="M462,-804.5C462,-804.5 638,-804.5 638,-804.5 644,-804.5 650,-810.5 650,-816.5 650,-816.5 650,-943.5 650,-943.5 650,-949.5 644,-955.5 638,-955.5 638,-955.5 462,-955.5 462,-955.5 456,-955.5 450,-949.5 450,-943.5 450,-943.5 450,-816.5 450,-816.5 450,-810.5 456,-804.5 462,-804.5"/>
<text text-anchor="middle" x="550" y="-940.3" font-family="Times,serif" font-size="14.00">AdminUser</text>
<polyline fill="none" stroke="black" points="450,-932.5 650,-932.5 "/>
<text text-anchor="start" x="458" y="-917.3" font-family="Times,serif" font-size="14.00">id :INTEGER</text>
<text text-anchor="start" x="458" y="-902.3" font-family="Times,serif" font-size="14.00">email :varchar</text>
<text text-anchor="start" x="458" y="-887.3" font-family="Times,serif" font-size="14.00">encrypted_password :varchar</text>
<text text-anchor="start" x="458" y="-872.3" font-family="Times,serif" font-size="14.00">reset_password_token :varchar</text>
<text text-anchor="start" x="458" y="-857.3" font-family="Times,serif" font-size="14.00">reset_password_sent_at :datetime</text>
<text text-anchor="start" x="458" y="-842.3" font-family="Times,serif" font-size="14.00">remember_created_at :datetime</text>
<text text-anchor="start" x="458" y="-827.3" font-family="Times,serif" font-size="14.00">created_at :datetime</text>
<text text-anchor="start" x="458" y="-812.3" font-family="Times,serif" font-size="14.00">updated_at :datetime</text>
</g>
<!-- Character&#45;&gt;FightEnemy -->
<g id="edge4" class="edge"><title>Character&#45;&gt;FightEnemy</title>
<path fill="none" stroke="#b0fc0d" d="M251.362,-474.037C237.248,-447.876 223.226,-421.886 211.123,-399.453"/>
<ellipse fill="none" stroke="#b0fc0d" cx="253.44" cy="-477.89" rx="4.00002" ry="4.00002"/>
<ellipse fill="#b0fc0d" stroke="#b0fc0d" cx="209.162" cy="-395.82" rx="4.00002" ry="4.00002"/>
</g>
<!-- Item -->
<g id="node7" class="node"><title>Item</title>
<path fill="none" stroke="black" d="M270.5,-218.5C270.5,-218.5 393.5,-218.5 393.5,-218.5 399.5,-218.5 405.5,-224.5 405.5,-230.5 405.5,-230.5 405.5,-432.5 405.5,-432.5 405.5,-438.5 399.5,-444.5 393.5,-444.5 393.5,-444.5 270.5,-444.5 270.5,-444.5 264.5,-444.5 258.5,-438.5 258.5,-432.5 258.5,-432.5 258.5,-230.5 258.5,-230.5 258.5,-224.5 264.5,-218.5 270.5,-218.5"/>
<text text-anchor="middle" x="332" y="-429.3" font-family="Times,serif" font-size="14.00">Item</text>
<polyline fill="none" stroke="black" points="258.5,-421.5 405.5,-421.5 "/>
<text text-anchor="start" x="266.5" y="-406.3" font-family="Times,serif" font-size="14.00">id :INTEGER</text>
<text text-anchor="start" x="266.5" y="-391.3" font-family="Times,serif" font-size="14.00">character_id :integer</text>
<text text-anchor="start" x="266.5" y="-376.3" font-family="Times,serif" font-size="14.00">item :varchar</text>
<text text-anchor="start" x="266.5" y="-361.3" font-family="Times,serif" font-size="14.00">name :varchar</text>
<text text-anchor="start" x="266.5" y="-346.3" font-family="Times,serif" font-size="14.00">type :varchar</text>
<text text-anchor="start" x="266.5" y="-331.3" font-family="Times,serif" font-size="14.00">character_class :varchar</text>
<text text-anchor="start" x="266.5" y="-316.3" font-family="Times,serif" font-size="14.00">rarity :varchar</text>
<text text-anchor="start" x="266.5" y="-301.3" font-family="Times,serif" font-size="14.00">lvl :integer</text>
<text text-anchor="start" x="266.5" y="-286.3" font-family="Times,serif" font-size="14.00">STR :integer</text>
<text text-anchor="start" x="266.5" y="-271.3" font-family="Times,serif" font-size="14.00">DEX :integer</text>
<text text-anchor="start" x="266.5" y="-256.3" font-family="Times,serif" font-size="14.00">INT :integer</text>
<text text-anchor="start" x="266.5" y="-241.3" font-family="Times,serif" font-size="14.00">created_at :datetime</text>
<text text-anchor="start" x="266.5" y="-226.3" font-family="Times,serif" font-size="14.00">updated_at :datetime</text>
</g>
<!-- Character&#45;&gt;Item -->
<g id="edge2" class="edge"><title>Character&#45;&gt;Item</title>
<path fill="none" stroke="#174f6f" d="M332,-473.361C332,-467.225 332,-461.099 332,-455.029"/>
<ellipse fill="none" stroke="#174f6f" cx="332" cy="-477.41" rx="4" ry="4"/>
<polygon fill="#174f6f" stroke="#174f6f" points="332,-454.872 336.5,-444.872 332,-449.872 332,-444.872 332,-444.872 332,-444.872 332,-449.872 327.5,-444.872 332,-454.872 332,-454.872"/>
</g>
<!-- Location -->
<g id="node8" class="node"><title>Location</title>
<path fill="none" stroke="black" d="M435.5,-278.5C435.5,-278.5 542.5,-278.5 542.5,-278.5 548.5,-278.5 554.5,-284.5 554.5,-290.5 554.5,-290.5 554.5,-372.5 554.5,-372.5 554.5,-378.5 548.5,-384.5 542.5,-384.5 542.5,-384.5 435.5,-384.5 435.5,-384.5 429.5,-384.5 423.5,-378.5 423.5,-372.5 423.5,-372.5 423.5,-290.5 423.5,-290.5 423.5,-284.5 429.5,-278.5 435.5,-278.5"/>
<text text-anchor="middle" x="489" y="-369.3" font-family="Times,serif" font-size="14.00">Location</text>
<polyline fill="none" stroke="black" points="423.5,-361.5 554.5,-361.5 "/>
<text text-anchor="start" x="431.5" y="-346.3" font-family="Times,serif" font-size="14.00">id :integer</text>
<text text-anchor="start" x="431.5" y="-331.3" font-family="Times,serif" font-size="14.00">enemy_id :integer</text>
<text text-anchor="start" x="431.5" y="-316.3" font-family="Times,serif" font-size="14.00">name :varchar</text>
<text text-anchor="start" x="431.5" y="-301.3" font-family="Times,serif" font-size="14.00">created_at :datetime</text>
<text text-anchor="start" x="431.5" y="-286.3" font-family="Times,serif" font-size="14.00">updated_at :datetime</text>
</g>
<!-- Character&#45;&gt;Location -->
<g id="edge3" class="edge"><title>Character&#45;&gt;Location</title>
<path fill="none" stroke="#299514" d="M412.601,-474.105C428.34,-444.934 443.966,-415.971 456.946,-391.913"/>
<ellipse fill="none" stroke="#299514" cx="410.56" cy="-477.89" rx="4.00002" ry="4.00002"/>
<ellipse fill="#299514" stroke="#299514" cx="458.987" cy="-388.129" rx="4.00002" ry="4.00002"/>
</g>
<!-- Enemy -->
<g id="node6" class="node"><title>Enemy</title>
<path fill="none" stroke="black" d="M435.5,-0.5C435.5,-0.5 542.5,-0.5 542.5,-0.5 548.5,-0.5 554.5,-6.5 554.5,-12.5 554.5,-12.5 554.5,-169.5 554.5,-169.5 554.5,-175.5 548.5,-181.5 542.5,-181.5 542.5,-181.5 435.5,-181.5 435.5,-181.5 429.5,-181.5 423.5,-175.5 423.5,-169.5 423.5,-169.5 423.5,-12.5 423.5,-12.5 423.5,-6.5 429.5,-0.5 435.5,-0.5"/>
<text text-anchor="middle" x="489" y="-166.3" font-family="Times,serif" font-size="14.00">Enemy</text>
<polyline fill="none" stroke="black" points="423.5,-158.5 554.5,-158.5 "/>
<text text-anchor="start" x="431.5" y="-143.3" font-family="Times,serif" font-size="14.00">id :INTEGER</text>
<text text-anchor="start" x="431.5" y="-128.3" font-family="Times,serif" font-size="14.00">name :varchar</text>
<text text-anchor="start" x="431.5" y="-113.3" font-family="Times,serif" font-size="14.00">lvl :integer</text>
<text text-anchor="start" x="431.5" y="-98.3" font-family="Times,serif" font-size="14.00">location_id :integer</text>
<text text-anchor="start" x="431.5" y="-83.3" font-family="Times,serif" font-size="14.00">hp :integer</text>
<text text-anchor="start" x="431.5" y="-68.3" font-family="Times,serif" font-size="14.00">damage :integer</text>
<text text-anchor="start" x="431.5" y="-53.3" font-family="Times,serif" font-size="14.00">created_at :datetime</text>
<text text-anchor="start" x="431.5" y="-38.3" font-family="Times,serif" font-size="14.00">updated_at :datetime</text>
<text text-anchor="start" x="431.5" y="-23.3" font-family="Times,serif" font-size="14.00">boss :boolean</text>
<text text-anchor="start" x="431.5" y="-8.3" font-family="Times,serif" font-size="14.00">num :integer</text>
</g>
<!-- Enemy&#45;&gt;Enemy -->
<g id="edge5" class="edge"><title>Enemy&#45;&gt;Enemy</title>
<path fill="none" stroke="#3cb756" d="M561.184,-127.348C568.112,-119.962 572.5,-107.846 572.5,-91 572.5,-75.502 568.786,-64.0071 562.797,-56.5153"/>
<ellipse fill="none" stroke="#3cb756" cx="557.933" cy="-129.944" rx="4.00002" ry="4.00002"/>
<polygon fill="#3cb756" stroke="#3cb756" points="562.35,-56.1259 557.762,-46.1656 558.578,-52.8427 554.807,-49.5596 554.807,-49.5596 554.807,-49.5596 558.578,-52.8427 551.853,-52.9535 562.35,-56.1259 562.35,-56.1259"/>
</g>
<!-- Location&#45;&gt;Enemy -->
<g id="edge6" class="edge"><title>Location&#45;&gt;Enemy</title>
<path fill="none" stroke="#095118" d="M489,-270.326C489,-246.587 489,-218.669 489,-192.06"/>
<ellipse fill="none" stroke="#095118" cx="489" cy="-274.455" rx="4" ry="4"/>
<polygon fill="#095118" stroke="#095118" points="489,-191.937 493.5,-181.937 489,-186.937 489,-181.937 489,-181.937 489,-181.937 489,-186.937 484.5,-181.937 489,-191.937 489,-191.937"/>
</g>
<!-- ApplicationRecord -->
<g id="node9" class="node"><title>ApplicationRecord</title>
<ellipse fill="none" stroke="black" cx="745" cy="-880" rx="77.1866" ry="18"/>
<text text-anchor="middle" x="745" y="-876.3" font-family="Times,serif" font-size="14.00">ApplicationRecord</text>
</g>
</g>
</svg>
