<?xml version="1.0" encoding="UTF-8" standalone="no"?>
<!DOCTYPE svg PUBLIC "-//W3C//DTD SVG 1.1//EN"
 "http://www.w3.org/Graphics/SVG/1.1/DTD/svg11.dtd">
<!-- Generated by graphviz version 2.38.0 (20140413.2041)
 -->
<!-- Title: models_diagram Pages: 1 -->
<svg width="980pt" height="701pt"
 viewBox="0.00 0.00 980.34 701.00" xmlns="http://www.w3.org/2000/svg" xmlns:xlink="http://www.w3.org/1999/xlink">
<g id="graph0" class="graph" transform="scale(1 1) rotate(0) translate(4 697)">
<title>models_diagram</title>
<polygon fill="none" stroke="none" points="-4,4 -4,-697 976.343,-697 976.343,4 -4,4"/>
<!-- _diagram_info -->
<g id="node1" class="node"><title>_diagram_info</title>
<text text-anchor="start" x="8" y="-641.6" font-family="Times,serif" font-size="13.00">Models diagram</text>
<text text-anchor="start" x="8" y="-627.6" font-family="Times,serif" font-size="13.00">Date: Dec 14 2018 &#45; 11:23</text>
<text text-anchor="start" x="8" y="-613.6" font-family="Times,serif" font-size="13.00">Migration version: 20181214090220</text>
<text text-anchor="start" x="8" y="-599.6" font-family="Times,serif" font-size="13.00">Generated by RailRoady 1.5.3</text>
<text text-anchor="start" x="8" y="-585.6" font-family="Times,serif" font-size="13.00">http://railroady.prestonlee.com</text>
</g>
<!-- User -->
<g id="node2" class="node"><title>User</title>
<path fill="none" stroke="black" d="M244,-541.5C244,-541.5 420,-541.5 420,-541.5 426,-541.5 432,-547.5 432,-553.5 432,-553.5 432,-680.5 432,-680.5 432,-686.5 426,-692.5 420,-692.5 420,-692.5 244,-692.5 244,-692.5 238,-692.5 232,-686.5 232,-680.5 232,-680.5 232,-553.5 232,-553.5 232,-547.5 238,-541.5 244,-541.5"/>
<text text-anchor="middle" x="332" y="-677.3" font-family="Times,serif" font-size="14.00">User</text>
<polyline fill="none" stroke="black" points="232,-669.5 432,-669.5 "/>
<text text-anchor="start" x="240" y="-654.3" font-family="Times,serif" font-size="14.00">id :INTEGER</text>
<text text-anchor="start" x="240" y="-639.3" font-family="Times,serif" font-size="14.00">email :varchar</text>
<text text-anchor="start" x="240" y="-624.3" font-family="Times,serif" font-size="14.00">encrypted_password :varchar</text>
<text text-anchor="start" x="240" y="-609.3" font-family="Times,serif" font-size="14.00">reset_password_token :varchar</text>
<text text-anchor="start" x="240" y="-594.3" font-family="Times,serif" font-size="14.00">reset_password_sent_at :datetime</text>
<text text-anchor="start" x="240" y="-579.3" font-family="Times,serif" font-size="14.00">remember_created_at :datetime</text>
<text text-anchor="start" x="240" y="-564.3" font-family="Times,serif" font-size="14.00">created_at :datetime</text>
<text text-anchor="start" x="240" y="-549.3" font-family="Times,serif" font-size="14.00">updated_at :datetime</text>
</g>
<!-- Character -->
<g id="node4" class="node"><title>Character</title>
<path fill="none" stroke="black" d="M263,-263.5C263,-263.5 413,-263.5 413,-263.5 419,-263.5 425,-269.5 425,-275.5 425,-275.5 425,-492.5 425,-492.5 425,-498.5 419,-504.5 413,-504.5 413,-504.5 263,-504.5 263,-504.5 257,-504.5 251,-498.5 251,-492.5 251,-492.5 251,-275.5 251,-275.5 251,-269.5 257,-263.5 263,-263.5"/>
<text text-anchor="middle" x="338" y="-489.3" font-family="Times,serif" font-size="14.00">Character</text>
<polyline fill="none" stroke="black" points="251,-481.5 425,-481.5 "/>
<text text-anchor="start" x="259" y="-466.3" font-family="Times,serif" font-size="14.00">id :INTEGER</text>
<text text-anchor="start" x="259" y="-451.3" font-family="Times,serif" font-size="14.00">user_id :integer</text>
<text text-anchor="start" x="259" y="-436.3" font-family="Times,serif" font-size="14.00">nickname :varchar</text>
<text text-anchor="start" x="259" y="-421.3" font-family="Times,serif" font-size="14.00">character_class :varchar</text>
<text text-anchor="start" x="259" y="-406.3" font-family="Times,serif" font-size="14.00">lvl :integer</text>
<text text-anchor="start" x="259" y="-391.3" font-family="Times,serif" font-size="14.00">damage :integer</text>
<text text-anchor="start" x="259" y="-376.3" font-family="Times,serif" font-size="14.00">hp :integer</text>
<text text-anchor="start" x="259" y="-361.3" font-family="Times,serif" font-size="14.00">created_at :datetime</text>
<text text-anchor="start" x="259" y="-346.3" font-family="Times,serif" font-size="14.00">updated_at :datetime</text>
<text text-anchor="start" x="259" y="-331.3" font-family="Times,serif" font-size="14.00">exp :integer</text>
<text text-anchor="start" x="259" y="-316.3" font-family="Times,serif" font-size="14.00">avatar_file_name :varchar</text>
<text text-anchor="start" x="259" y="-301.3" font-family="Times,serif" font-size="14.00">avatar_content_type :varchar</text>
<text text-anchor="start" x="259" y="-286.3" font-family="Times,serif" font-size="14.00">avatar_file_size :integer</text>
<text text-anchor="start" x="259" y="-271.3" font-family="Times,serif" font-size="14.00">avatar_updated_at :datetime</text>
</g>
<!-- User&#45;&gt;Character -->
<g id="edge1" class="edge"><title>User&#45;&gt;Character</title>
<path fill="none" stroke="#fa24fc" d="M334.149,-533.254C334.322,-526.586 334.5,-519.759 334.679,-512.874"/>
<ellipse fill="none" stroke="#fa24fc" cx="334.044" cy="-537.321" rx="4" ry="4"/>
<ellipse fill="#fa24fc" stroke="#fa24fc" cx="334.785" cy="-508.768" rx="4" ry="4"/>
</g>
<!-- AdminUser -->
<g id="node3" class="node"><title>AdminUser</title>
<path fill="none" stroke="black" d="M612,-541.5C612,-541.5 788,-541.5 788,-541.5 794,-541.5 800,-547.5 800,-553.5 800,-553.5 800,-680.5 800,-680.5 800,-686.5 794,-692.5 788,-692.5 788,-692.5 612,-692.5 612,-692.5 606,-692.5 600,-686.5 600,-680.5 600,-680.5 600,-553.5 600,-553.5 600,-547.5 606,-541.5 612,-541.5"/>
<text text-anchor="middle" x="700" y="-677.3" font-family="Times,serif" font-size="14.00">AdminUser</text>
<polyline fill="none" stroke="black" points="600,-669.5 800,-669.5 "/>
<text text-anchor="start" x="608" y="-654.3" font-family="Times,serif" font-size="14.00">id :INTEGER</text>
<text text-anchor="start" x="608" y="-639.3" font-family="Times,serif" font-size="14.00">email :varchar</text>
<text text-anchor="start" x="608" y="-624.3" font-family="Times,serif" font-size="14.00">encrypted_password :varchar</text>
<text text-anchor="start" x="608" y="-609.3" font-family="Times,serif" font-size="14.00">reset_password_token :varchar</text>
<text text-anchor="start" x="608" y="-594.3" font-family="Times,serif" font-size="14.00">reset_password_sent_at :datetime</text>
<text text-anchor="start" x="608" y="-579.3" font-family="Times,serif" font-size="14.00">remember_created_at :datetime</text>
<text text-anchor="start" x="608" y="-564.3" font-family="Times,serif" font-size="14.00">created_at :datetime</text>
<text text-anchor="start" x="608" y="-549.3" font-family="Times,serif" font-size="14.00">updated_at :datetime</text>
</g>
<!-- Item -->
<g id="node8" class="node"><title>Item</title>
<path fill="none" stroke="black" d="M276.5,-0.5C276.5,-0.5 399.5,-0.5 399.5,-0.5 405.5,-0.5 411.5,-6.5 411.5,-12.5 411.5,-12.5 411.5,-214.5 411.5,-214.5 411.5,-220.5 405.5,-226.5 399.5,-226.5 399.5,-226.5 276.5,-226.5 276.5,-226.5 270.5,-226.5 264.5,-220.5 264.5,-214.5 264.5,-214.5 264.5,-12.5 264.5,-12.5 264.5,-6.5 270.5,-0.5 276.5,-0.5"/>
<text text-anchor="middle" x="338" y="-211.3" font-family="Times,serif" font-size="14.00">Item</text>
<polyline fill="none" stroke="black" points="264.5,-203.5 411.5,-203.5 "/>
<text text-anchor="start" x="272.5" y="-188.3" font-family="Times,serif" font-size="14.00">id :INTEGER</text>
<text text-anchor="start" x="272.5" y="-173.3" font-family="Times,serif" font-size="14.00">character_id :integer</text>
<text text-anchor="start" x="272.5" y="-158.3" font-family="Times,serif" font-size="14.00">item :varchar</text>
<text text-anchor="start" x="272.5" y="-143.3" font-family="Times,serif" font-size="14.00">name :varchar</text>
<text text-anchor="start" x="272.5" y="-128.3" font-family="Times,serif" font-size="14.00">type :varchar</text>
<text text-anchor="start" x="272.5" y="-113.3" font-family="Times,serif" font-size="14.00">character_class :varchar</text>
<text text-anchor="start" x="272.5" y="-98.3" font-family="Times,serif" font-size="14.00">rarity :varchar</text>
<text text-anchor="start" x="272.5" y="-83.3" font-family="Times,serif" font-size="14.00">lvl :integer</text>
<text text-anchor="start" x="272.5" y="-68.3" font-family="Times,serif" font-size="14.00">STR :integer</text>
<text text-anchor="start" x="272.5" y="-53.3" font-family="Times,serif" font-size="14.00">DEX :integer</text>
<text text-anchor="start" x="272.5" y="-38.3" font-family="Times,serif" font-size="14.00">INT :integer</text>
<text text-anchor="start" x="272.5" y="-23.3" font-family="Times,serif" font-size="14.00">created_at :datetime</text>
<text text-anchor="start" x="272.5" y="-8.3" font-family="Times,serif" font-size="14.00">updated_at :datetime</text>
</g>
<!-- Character&#45;&gt;Item -->
<g id="edge2" class="edge"><title>Character&#45;&gt;Item</title>
<path fill="none" stroke="#56ca6d" d="M338,-255.274C338,-249.159 338,-243.027 338,-236.927"/>
<ellipse fill="none" stroke="#56ca6d" cx="338" cy="-259.277" rx="4" ry="4"/>
<polygon fill="#56ca6d" stroke="#56ca6d" points="338,-236.701 342.5,-226.701 338,-231.701 338,-226.701 338,-226.701 338,-226.701 338,-231.701 333.5,-226.701 338,-236.701 338,-236.701"/>
</g>
<!-- Bosse -->
<g id="node5" class="node"><title>Bosse</title>
<path fill="none" stroke="black" d="M451.5,-38C451.5,-38 558.5,-38 558.5,-38 564.5,-38 570.5,-44 570.5,-50 570.5,-50 570.5,-177 570.5,-177 570.5,-183 564.5,-189 558.5,-189 558.5,-189 451.5,-189 451.5,-189 445.5,-189 439.5,-183 439.5,-177 439.5,-177 439.5,-50 439.5,-50 439.5,-44 445.5,-38 451.5,-38"/>
<text text-anchor="middle" x="505" y="-173.8" font-family="Times,serif" font-size="14.00">Bosse</text>
<polyline fill="none" stroke="black" points="439.5,-166 570.5,-166 "/>
<text text-anchor="start" x="447.5" y="-150.8" font-family="Times,serif" font-size="14.00">id :INTEGER</text>
<text text-anchor="start" x="447.5" y="-135.8" font-family="Times,serif" font-size="14.00">name :varchar</text>
<text text-anchor="start" x="447.5" y="-120.8" font-family="Times,serif" font-size="14.00">lvl :integer</text>
<text text-anchor="start" x="447.5" y="-105.8" font-family="Times,serif" font-size="14.00">location_id :integer</text>
<text text-anchor="start" x="447.5" y="-90.8" font-family="Times,serif" font-size="14.00">hp :integer</text>
<text text-anchor="start" x="447.5" y="-75.8" font-family="Times,serif" font-size="14.00">damage :integer</text>
<text text-anchor="start" x="447.5" y="-60.8" font-family="Times,serif" font-size="14.00">created_at :datetime</text>
<text text-anchor="start" x="447.5" y="-45.8" font-family="Times,serif" font-size="14.00">updated_at :datetime</text>
</g>
<!-- Enemy -->
<g id="node6" class="node"><title>Enemy</title>
<path fill="none" stroke="black" d="M600.5,-38C600.5,-38 707.5,-38 707.5,-38 713.5,-38 719.5,-44 719.5,-50 719.5,-50 719.5,-177 719.5,-177 719.5,-183 713.5,-189 707.5,-189 707.5,-189 600.5,-189 600.5,-189 594.5,-189 588.5,-183 588.5,-177 588.5,-177 588.5,-50 588.5,-50 588.5,-44 594.5,-38 600.5,-38"/>
<text text-anchor="middle" x="654" y="-173.8" font-family="Times,serif" font-size="14.00">Enemy</text>
<polyline fill="none" stroke="black" points="588.5,-166 719.5,-166 "/>
<text text-anchor="start" x="596.5" y="-150.8" font-family="Times,serif" font-size="14.00">id :INTEGER</text>
<text text-anchor="start" x="596.5" y="-135.8" font-family="Times,serif" font-size="14.00">name :varchar</text>
<text text-anchor="start" x="596.5" y="-120.8" font-family="Times,serif" font-size="14.00">lvl :integer</text>
<text text-anchor="start" x="596.5" y="-105.8" font-family="Times,serif" font-size="14.00">location_id :integer</text>
<text text-anchor="start" x="596.5" y="-90.8" font-family="Times,serif" font-size="14.00">hp :integer</text>
<text text-anchor="start" x="596.5" y="-75.8" font-family="Times,serif" font-size="14.00">damage :integer</text>
<text text-anchor="start" x="596.5" y="-60.8" font-family="Times,serif" font-size="14.00">created_at :datetime</text>
<text text-anchor="start" x="596.5" y="-45.8" font-family="Times,serif" font-size="14.00">updated_at :datetime</text>
</g>
<!-- GameSession -->
<g id="node7" class="node"><title>GameSession</title>
<path fill="none" stroke="black" d="M462.5,-564C462.5,-564 569.5,-564 569.5,-564 575.5,-564 581.5,-570 581.5,-576 581.5,-576 581.5,-658 581.5,-658 581.5,-664 575.5,-670 569.5,-670 569.5,-670 462.5,-670 462.5,-670 456.5,-670 450.5,-664 450.5,-658 450.5,-658 450.5,-576 450.5,-576 450.5,-570 456.5,-564 462.5,-564"/>
<text text-anchor="middle" x="516" y="-654.8" font-family="Times,serif" font-size="14.00">GameSession</text>
<polyline fill="none" stroke="black" points="450.5,-647 581.5,-647 "/>
<text text-anchor="start" x="458.5" y="-631.8" font-family="Times,serif" font-size="14.00">id :INTEGER</text>
<text text-anchor="start" x="458.5" y="-616.8" font-family="Times,serif" font-size="14.00">character_id :integer</text>
<text text-anchor="start" x="458.5" y="-601.8" font-family="Times,serif" font-size="14.00">location_id :integer</text>
<text text-anchor="start" x="458.5" y="-586.8" font-family="Times,serif" font-size="14.00">created_at :datetime</text>
<text text-anchor="start" x="458.5" y="-571.8" font-family="Times,serif" font-size="14.00">updated_at :datetime</text>
</g>
<!-- GameSession&#45;&gt;Character -->
<g id="edge3" class="edge"><title>GameSession&#45;&gt;Character</title>
<path fill="none" stroke="#cfa44f" d="M470.792,-557.331C458.393,-541.24 444.483,-523.189 430.459,-504.989"/>
<ellipse fill="none" stroke="#cfa44f" cx="473.39" cy="-560.703" rx="4.00002" ry="4.00002"/>
<ellipse fill="#cfa44f" stroke="#cfa44f" cx="427.731" cy="-501.449" rx="4.00002" ry="4.00002"/>
</g>
<!-- Location -->
<g id="node9" class="node"><title>Location</title>
<path fill="none" stroke="black" d="M462.5,-316C462.5,-316 569.5,-316 569.5,-316 575.5,-316 581.5,-322 581.5,-328 581.5,-328 581.5,-440 581.5,-440 581.5,-446 575.5,-452 569.5,-452 569.5,-452 462.5,-452 462.5,-452 456.5,-452 450.5,-446 450.5,-440 450.5,-440 450.5,-328 450.5,-328 450.5,-322 456.5,-316 462.5,-316"/>
<text text-anchor="middle" x="516" y="-436.8" font-family="Times,serif" font-size="14.00">Location</text>
<polyline fill="none" stroke="black" points="450.5,-429 581.5,-429 "/>
<text text-anchor="start" x="458.5" y="-413.8" font-family="Times,serif" font-size="14.00">id :INTEGER</text>
<text text-anchor="start" x="458.5" y="-398.8" font-family="Times,serif" font-size="14.00">character_id :integer</text>
<text text-anchor="start" x="458.5" y="-383.8" font-family="Times,serif" font-size="14.00">enemy_id :integer</text>
<text text-anchor="start" x="458.5" y="-368.8" font-family="Times,serif" font-size="14.00">bosse_id :integer</text>
<text text-anchor="start" x="458.5" y="-353.8" font-family="Times,serif" font-size="14.00">name :varchar</text>
<text text-anchor="start" x="458.5" y="-338.8" font-family="Times,serif" font-size="14.00">created_at :datetime</text>
<text text-anchor="start" x="458.5" y="-323.8" font-family="Times,serif" font-size="14.00">updated_at :datetime</text>
</g>
<!-- GameSession&#45;&gt;Location -->
<g id="edge4" class="edge"><title>GameSession&#45;&gt;Location</title>
<path fill="none" stroke="#40f766" d="M516,-555.558C516,-526.465 516,-491.29 516,-460.459"/>
<ellipse fill="none" stroke="#40f766" cx="516" cy="-559.871" rx="4" ry="4"/>
<ellipse fill="#40f766" stroke="#40f766" cx="516" cy="-456.305" rx="4" ry="4"/>
</g>
<!-- Location&#45;&gt;Bosse -->
<g id="edge5" class="edge"><title>Location&#45;&gt;Bosse</title>
<path fill="none" stroke="#719df0" d="M512.914,-307.672C511.51,-273.393 509.843,-232.721 508.403,-197.559"/>
<ellipse fill="none" stroke="#719df0" cx="513.089" cy="-311.942" rx="4" ry="4"/>
<ellipse fill="#719df0" stroke="#719df0" cx="508.225" cy="-193.211" rx="4" ry="4"/>
</g>
<!-- Location&#45;&gt;Enemy -->
<g id="edge6" class="edge"><title>Location&#45;&gt;Enemy</title>
<path fill="none" stroke="#3e71c3" d="M554.237,-308.604C571.793,-274.446 592.69,-233.787 610.812,-198.529"/>
<ellipse fill="none" stroke="#3e71c3" cx="552.296" cy="-312.381" rx="4.00002" ry="4.00002"/>
<polygon fill="#3e71c3" stroke="#3e71c3" points="611.028,-198.108 619.602,-191.271 613.314,-193.661 615.599,-189.214 615.599,-189.214 615.599,-189.214 613.314,-193.661 611.597,-187.157 611.028,-198.108 611.028,-198.108"/>
</g>
<!-- ApplicationRecord -->
<g id="node10" class="node"><title>ApplicationRecord</title>
<ellipse fill="none" stroke="black" cx="895" cy="-617" rx="77.1866" ry="18"/>
<text text-anchor="middle" x="895" y="-613.3" font-family="Times,serif" font-size="14.00">ApplicationRecord</text>
</g>
</g>
</svg>
