<?xml version="1.0" encoding="UTF-8" standalone="no"?>
<!DOCTYPE svg PUBLIC "-//W3C//DTD SVG 1.1//EN"
 "http://www.w3.org/Graphics/SVG/1.1/DTD/svg11.dtd">
<!-- Generated by graphviz version 2.38.0 (20140413.2041)
 -->
<!-- Title: models_diagram Pages: 1 -->
<svg width="588pt" height="302pt"
 viewBox="0.00 0.00 588.34 302.00" xmlns="http://www.w3.org/2000/svg" xmlns:xlink="http://www.w3.org/1999/xlink">
<g id="graph0" class="graph" transform="scale(1 1) rotate(0) translate(4 298)">
<title>models_diagram</title>
<polygon fill="none" stroke="none" points="-4,4 -4,-298 584.343,-298 584.343,4 -4,4"/>
<!-- _diagram_info -->
<g id="node1" class="node"><title>_diagram_info</title>
<text text-anchor="start" x="8" y="-279.6" font-family="Times,serif" font-size="13.00">Models diagram</text>
<text text-anchor="start" x="8" y="-265.6" font-family="Times,serif" font-size="13.00">Date: Dec 20 2018 &#45; 21:19</text>
<text text-anchor="start" x="8" y="-251.6" font-family="Times,serif" font-size="13.00">Migration version: 20181216114504</text>
<text text-anchor="start" x="8" y="-237.6" font-family="Times,serif" font-size="13.00">Generated by RailRoady 1.5.3</text>
<text text-anchor="start" x="8" y="-223.6" font-family="Times,serif" font-size="13.00">http://railroady.prestonlee.com</text>
</g>
<!-- User -->
<g id="node2" class="node"><title>User</title>
<ellipse fill="none" stroke="black" cx="259" cy="-255" rx="27.0966" ry="18"/>
<text text-anchor="middle" x="259" y="-251.3" font-family="Times,serif" font-size="14.00">User</text>
</g>
<!-- Character -->
<g id="node5" class="node"><title>Character</title>
<ellipse fill="none" stroke="black" cx="259" cy="-162" rx="44.6926" ry="18"/>
<text text-anchor="middle" x="259" y="-158.3" font-family="Times,serif" font-size="14.00">Character</text>
</g>
<!-- User&#45;&gt;Character -->
<g id="edge1" class="edge"><title>User&#45;&gt;Character</title>
<path fill="none" stroke="#4eb3b4" d="M259,-228.729C259,-216.118 259,-200.905 259,-188.292"/>
<ellipse fill="none" stroke="#4eb3b4" cx="259" cy="-232.884" rx="4" ry="4"/>
<ellipse fill="#4eb3b4" stroke="#4eb3b4" cx="259" cy="-184.04" rx="4" ry="4"/>
</g>
<!-- FightEnemy -->
<g id="node3" class="node"><title>FightEnemy</title>
<ellipse fill="none" stroke="black" cx="159" cy="-90" rx="54.6905" ry="18"/>
<text text-anchor="middle" x="159" y="-86.3" font-family="Times,serif" font-size="14.00">FightEnemy</text>
</g>
<!-- AdminUser -->
<g id="node4" class="node"><title>AdminUser</title>
<ellipse fill="none" stroke="black" cx="356" cy="-255" rx="51.9908" ry="18"/>
<text text-anchor="middle" x="356" y="-251.3" font-family="Times,serif" font-size="14.00">AdminUser</text>
</g>
<!-- Character&#45;&gt;FightEnemy -->
<g id="edge4" class="edge"><title>Character&#45;&gt;FightEnemy</title>
<path fill="none" stroke="#0897b1" d="M230.412,-140.989C217.145,-131.701 201.398,-120.678 188.071,-111.35"/>
<ellipse fill="none" stroke="#0897b1" cx="234.025" cy="-143.517" rx="4.00002" ry="4.00002"/>
<ellipse fill="#0897b1" stroke="#0897b1" cx="184.626" cy="-108.938" rx="4.00002" ry="4.00002"/>
</g>
<!-- Item -->
<g id="node7" class="node"><title>Item</title>
<ellipse fill="none" stroke="black" cx="259" cy="-90" rx="27.0966" ry="18"/>
<text text-anchor="middle" x="259" y="-86.3" font-family="Times,serif" font-size="14.00">Item</text>
</g>
<!-- Character&#45;&gt;Item -->
<g id="edge2" class="edge"><title>Character&#45;&gt;Item</title>
<path fill="none" stroke="#3d5d3b" d="M259,-135.64C259,-130.063 259,-124.132 259,-118.476"/>
<ellipse fill="none" stroke="#3d5d3b" cx="259" cy="-139.697" rx="4" ry="4"/>
<polygon fill="#3d5d3b" stroke="#3d5d3b" points="259,-118.104 263.5,-108.104 259,-113.104 259,-108.104 259,-108.104 259,-108.104 259,-113.104 254.5,-108.104 259,-118.104 259,-118.104"/>
</g>
<!-- Location -->
<g id="node8" class="node"><title>Location</title>
<ellipse fill="none" stroke="black" cx="347" cy="-90" rx="42.4939" ry="18"/>
<text text-anchor="middle" x="347" y="-86.3" font-family="Times,serif" font-size="14.00">Location</text>
</g>
<!-- Character&#45;&gt;Location -->
<g id="edge3" class="edge"><title>Character&#45;&gt;Location</title>
<path fill="none" stroke="#e65a50" d="M285.011,-140.309C296.485,-131.182 309.93,-120.488 321.36,-111.395"/>
<ellipse fill="none" stroke="#e65a50" cx="281.66" cy="-142.975" rx="4.00002" ry="4.00002"/>
<ellipse fill="#e65a50" stroke="#e65a50" cx="324.697" cy="-108.741" rx="4.00002" ry="4.00002"/>
</g>
<!-- Enemy -->
<g id="node6" class="node"><title>Enemy</title>
<ellipse fill="none" stroke="black" cx="347" cy="-18" rx="36.2938" ry="18"/>
<text text-anchor="middle" x="347" y="-14.3" font-family="Times,serif" font-size="14.00">Enemy</text>
</g>
<!-- Enemy&#45;&gt;Enemy -->
<g id="edge5" class="edge"><title>Enemy&#45;&gt;Enemy</title>
<path fill="none" stroke="#5752ba" d="M380.898,-31.4999C392.277,-31.5263 401.397,-27.0264 401.397,-18 401.397,-9.49438 393.299,-5.00796 382.844,-4.54074"/>
<ellipse fill="none" stroke="#5752ba" cx="376.727" cy="-31.1207" rx="4" ry="4"/>
<polygon fill="#5752ba" stroke="#5752ba" points="382.72,-4.54926 372.432,-0.752371 377.732,-4.89542 372.744,-5.24158 372.744,-5.24158 372.744,-5.24158 377.732,-4.89542 373.055,-9.73078 382.72,-4.54926 382.72,-4.54926"/>
</g>
<!-- Location&#45;&gt;Enemy -->
<g id="edge6" class="edge"><title>Location&#45;&gt;Enemy</title>
<path fill="none" stroke="#7efca7" d="M347,-63.6398C347,-58.0629 347,-52.1319 347,-46.4761"/>
<ellipse fill="none" stroke="#7efca7" cx="347" cy="-67.6966" rx="4" ry="4"/>
<polygon fill="#7efca7" stroke="#7efca7" points="347,-46.1043 351.5,-36.1043 347,-41.1043 347,-36.1043 347,-36.1043 347,-36.1043 347,-41.1043 342.5,-36.1044 347,-46.1043 347,-46.1043"/>
</g>
<!-- ApplicationRecord -->
<g id="node9" class="node"><title>ApplicationRecord</title>
<ellipse fill="none" stroke="black" cx="503" cy="-255" rx="77.1866" ry="18"/>
<text text-anchor="middle" x="503" y="-251.3" font-family="Times,serif" font-size="14.00">ApplicationRecord</text>
</g>
</g>
</svg>
