<?xml version="1.0" encoding="UTF-8" standalone="no"?>
<!DOCTYPE svg PUBLIC "-//W3C//DTD SVG 1.1//EN"
 "http://www.w3.org/Graphics/SVG/1.1/DTD/svg11.dtd">
<!-- Generated by graphviz version 2.38.0 (20140413.2041)
 -->
<!-- Title: models_diagram Pages: 1 -->
<svg width="724pt" height="230pt"
 viewBox="0.00 0.00 724.34 230.00" xmlns="http://www.w3.org/2000/svg" xmlns:xlink="http://www.w3.org/1999/xlink">
<g id="graph0" class="graph" transform="scale(1 1) rotate(0) translate(4 226)">
<title>models_diagram</title>
<polygon fill="none" stroke="none" points="-4,4 -4,-226 720.343,-226 720.343,4 -4,4"/>
<!-- _diagram_info -->
<g id="node1" class="node"><title>_diagram_info</title>
<text text-anchor="start" x="8" y="-207.6" font-family="Times,serif" font-size="13.00">Models diagram</text>
<text text-anchor="start" x="8" y="-193.6" font-family="Times,serif" font-size="13.00">Date: Dec 14 2018 &#45; 11:23</text>
<text text-anchor="start" x="8" y="-179.6" font-family="Times,serif" font-size="13.00">Migration version: 20181214090220</text>
<text text-anchor="start" x="8" y="-165.6" font-family="Times,serif" font-size="13.00">Generated by RailRoady 1.5.3</text>
<text text-anchor="start" x="8" y="-151.6" font-family="Times,serif" font-size="13.00">http://railroady.prestonlee.com</text>
</g>
<!-- User -->
<g id="node2" class="node"><title>User</title>
<ellipse fill="none" stroke="black" cx="259" cy="-183" rx="27.0966" ry="18"/>
<text text-anchor="middle" x="259" y="-179.3" font-family="Times,serif" font-size="14.00">User</text>
</g>
<!-- Character -->
<g id="node4" class="node"><title>Character</title>
<ellipse fill="none" stroke="black" cx="259" cy="-90" rx="44.6926" ry="18"/>
<text text-anchor="middle" x="259" y="-86.3" font-family="Times,serif" font-size="14.00">Character</text>
</g>
<!-- User&#45;&gt;Character -->
<g id="edge1" class="edge"><title>User&#45;&gt;Character</title>
<path fill="none" stroke="#16c732" d="M259,-156.729C259,-144.118 259,-128.905 259,-116.292"/>
<ellipse fill="none" stroke="#16c732" cx="259" cy="-160.884" rx="4" ry="4"/>
<ellipse fill="#16c732" stroke="#16c732" cx="259" cy="-112.04" rx="4" ry="4"/>
</g>
<!-- AdminUser -->
<g id="node3" class="node"><title>AdminUser</title>
<ellipse fill="none" stroke="black" cx="492" cy="-183" rx="51.9908" ry="18"/>
<text text-anchor="middle" x="492" y="-179.3" font-family="Times,serif" font-size="14.00">AdminUser</text>
</g>
<!-- Item -->
<g id="node8" class="node"><title>Item</title>
<ellipse fill="none" stroke="black" cx="259" cy="-18" rx="27.0966" ry="18"/>
<text text-anchor="middle" x="259" y="-14.3" font-family="Times,serif" font-size="14.00">Item</text>
</g>
<!-- Character&#45;&gt;Item -->
<g id="edge2" class="edge"><title>Character&#45;&gt;Item</title>
<path fill="none" stroke="#fda0f2" d="M259,-63.6398C259,-58.0629 259,-52.1319 259,-46.4761"/>
<ellipse fill="none" stroke="#fda0f2" cx="259" cy="-67.6966" rx="4" ry="4"/>
<polygon fill="#fda0f2" stroke="#fda0f2" points="259,-46.1043 263.5,-36.1043 259,-41.1043 259,-36.1043 259,-36.1043 259,-36.1043 259,-41.1043 254.5,-36.1044 259,-46.1043 259,-46.1043"/>
</g>
<!-- Bosse -->
<g id="node5" class="node"><title>Bosse</title>
<ellipse fill="none" stroke="black" cx="350" cy="-18" rx="31.6951" ry="18"/>
<text text-anchor="middle" x="350" y="-14.3" font-family="Times,serif" font-size="14.00">Bosse</text>
</g>
<!-- Enemy -->
<g id="node6" class="node"><title>Enemy</title>
<ellipse fill="none" stroke="black" cx="436" cy="-18" rx="36.2938" ry="18"/>
<text text-anchor="middle" x="436" y="-14.3" font-family="Times,serif" font-size="14.00">Enemy</text>
</g>
<!-- GameSession -->
<g id="node7" class="node"><title>GameSession</title>
<ellipse fill="none" stroke="black" cx="363" cy="-183" rx="59.2899" ry="18"/>
<text text-anchor="middle" x="363" y="-179.3" font-family="Times,serif" font-size="14.00">GameSession</text>
</g>
<!-- GameSession&#45;&gt;Character -->
<g id="edge3" class="edge"><title>GameSession&#45;&gt;Character</title>
<path fill="none" stroke="#cbb72e" d="M338.305,-160.392C321.698,-145.861 299.905,-126.792 283.367,-112.321"/>
<ellipse fill="none" stroke="#cbb72e" cx="341.397" cy="-163.097" rx="4.00002" ry="4.00002"/>
<ellipse fill="#cbb72e" stroke="#cbb72e" cx="280.094" cy="-109.457" rx="4.00002" ry="4.00002"/>
</g>
<!-- Location -->
<g id="node9" class="node"><title>Location</title>
<ellipse fill="none" stroke="black" cx="364" cy="-90" rx="42.4939" ry="18"/>
<text text-anchor="middle" x="364" y="-86.3" font-family="Times,serif" font-size="14.00">Location</text>
</g>
<!-- GameSession&#45;&gt;Location -->
<g id="edge4" class="edge"><title>GameSession&#45;&gt;Location</title>
<path fill="none" stroke="#87c468" d="M363.278,-156.729C363.416,-144.118 363.583,-128.905 363.722,-116.292"/>
<ellipse fill="none" stroke="#87c468" cx="363.232" cy="-160.884" rx="4" ry="4"/>
<ellipse fill="#87c468" stroke="#87c468" cx="363.769" cy="-112.039" rx="4" ry="4"/>
</g>
<!-- Location&#45;&gt;Bosse -->
<g id="edge5" class="edge"><title>Location&#45;&gt;Bosse</title>
<path fill="none" stroke="#96426b" d="M358.997,-63.9868C357.706,-57.5321 356.317,-50.5829 355.025,-44.1227"/>
<ellipse fill="none" stroke="#96426b" cx="359.826" cy="-68.1326" rx="4.00001" ry="4.00001"/>
<ellipse fill="#96426b" stroke="#96426b" cx="354.24" cy="-40.1976" rx="4.00001" ry="4.00001"/>
</g>
<!-- Location&#45;&gt;Enemy -->
<g id="edge6" class="edge"><title>Location&#45;&gt;Enemy</title>
<path fill="none" stroke="#9094f9" d="M386.212,-67.4049C394.725,-59.1282 404.45,-49.6734 413.033,-41.3294"/>
<ellipse fill="none" stroke="#9094f9" cx="383.206" cy="-70.3276" rx="4.00002" ry="4.00002"/>
<polygon fill="#9094f9" stroke="#9094f9" points="413.052,-41.311 423.358,-37.5666 416.637,-37.8256 420.222,-34.3402 420.222,-34.3402 420.222,-34.3402 416.637,-37.8256 417.085,-31.1137 413.052,-41.311 413.052,-41.311"/>
</g>
<!-- ApplicationRecord -->
<g id="node10" class="node"><title>ApplicationRecord</title>
<ellipse fill="none" stroke="black" cx="639" cy="-183" rx="77.1866" ry="18"/>
<text text-anchor="middle" x="639" y="-179.3" font-family="Times,serif" font-size="14.00">ApplicationRecord</text>
</g>
</g>
</svg>
